# Blender v2.82 (sub 7) OBJ File: ''
# www.blender.org
o Icosphere_Icosphere.001
v 0.000000 -0.250000 0.000000
v 0.264448 -0.111805 0.131431
v -0.101008 -0.111805 0.212662
v -0.326875 -0.111804 0.000000
v -0.101008 -0.111805 -0.212662
v 0.264448 -0.111805 -0.131431
v 0.101008 0.111805 0.212662
v -0.264448 0.111805 0.131431
v -0.264448 0.111805 -0.131431
v 0.101008 0.111805 -0.212662
v 0.326875 0.111804 0.000000
v 0.000000 0.250000 0.000000
v -0.059371 -0.212664 0.124999
v 0.155437 -0.212664 0.077253
v 0.096067 -0.131434 0.202253
v 0.310876 -0.131434 0.000000
v 0.155437 -0.212664 -0.077253
v -0.192132 -0.212663 0.000000
v -0.251504 -0.131434 0.124999
v -0.059371 -0.212664 -0.124999
v -0.251504 -0.131434 -0.124999
v 0.096067 -0.131434 -0.202253
v 0.347571 0.000000 0.077253
v 0.347571 0.000000 -0.077253
v 0.000000 0.000000 0.250000
v 0.214811 0.000000 0.202254
v -0.347571 0.000000 0.077253
v -0.214811 0.000000 0.202254
v -0.214811 0.000000 -0.202254
v -0.347571 0.000000 -0.077253
v 0.214811 0.000000 -0.202254
v 0.000000 0.000000 -0.250000
v 0.251504 0.131434 0.124999
v -0.096067 0.131434 0.202253
v -0.310876 0.131434 0.000000
v -0.096067 0.131434 -0.202253
v 0.251504 0.131434 -0.124999
v 0.059371 0.212664 0.124999
v 0.192132 0.212663 0.000000
v -0.155437 0.212664 0.077253
v -0.155437 0.212664 -0.077253
v 0.059371 0.212664 -0.124999
vt 0.557388 0.949334
vt 0.503908 0.856705
vt 0.450429 0.949334
vt 0.450428 0.764076
vt 0.557387 0.764077
vt 0.503907 0.671448
vt 0.985219 0.208308
vt 0.931739 0.115679
vt 0.878260 0.208307
vt 0.878261 0.393565
vt 0.824781 0.300936
vt 0.771302 0.393564
vt 0.771303 0.578821
vt 0.717823 0.486192
vt 0.664344 0.578821
vt 0.396948 0.671448
vt 0.343470 0.949333
vt 0.396949 0.856705
vt 0.289990 0.856705
vt 0.771301 0.208307
vt 0.824780 0.115679
vt 0.717822 0.115678
vt 0.664343 0.393563
vt 0.717822 0.300935
vt 0.610864 0.300935
vt 0.557385 0.578820
vt 0.610864 0.486192
vt 0.503906 0.486191
vt 0.343469 0.764076
vt 0.236511 0.949333
vt 0.664343 0.208307
vt 0.557385 0.393563
vt 0.450427 0.578820
vt 0.236511 0.764076
vt 0.289990 0.671448
vt 0.183031 0.671447
vt 0.129552 0.949334
vt 0.183031 0.856705
vt 0.076073 0.856704
vt 0.557384 0.208306
vt 0.610863 0.115678
vt 0.503904 0.115678
vt 0.450427 0.393563
vt 0.503906 0.300935
vt 0.396947 0.300934
vt 0.343469 0.578819
vt 0.396948 0.486191
vt 0.289989 0.486191
vt 0.343468 0.393562
vt 0.236509 0.393562
vt 0.450426 0.208306
vt 0.343467 0.208305
vt 0.557383 0.023049
vt 0.450424 0.023049
vt 0.664342 0.023050
vt 0.129552 0.764075
vt 0.022593 0.764075
vt 0.236510 0.578819
vt 0.129551 0.578818
vt 0.771301 0.023050
vt 0.878259 0.023050
vt 0.610865 0.671449
vt 0.664346 0.764078
vn 0.0702 -0.9462 0.3160
vn 0.5572 -0.7697 0.3118
vn -0.1870 -0.9621 0.1986
vn -0.1870 -0.9621 -0.1986
vn 0.0702 -0.9462 -0.3160
vn 0.8242 -0.4398 0.3568
vn 0.0169 -0.3304 0.9437
vn -0.7999 -0.4342 0.4141
vn -0.4329 -0.3639 -0.8247
vn 0.3971 -0.3588 -0.8447
vn 0.6772 -0.1550 0.7193
vn -0.2152 -0.1289 0.9680
vn -0.9833 -0.1820 0.0000
vn -0.2152 -0.1289 -0.9680
vn 0.6772 -0.1550 -0.7193
vn 0.2931 0.6933 0.6584
vn -0.3433 0.7046 0.6210
vn -0.5572 0.7697 -0.3118
vn 0.0264 0.6620 -0.7491
vn 0.5833 0.7792 -0.2293
vn 0.1870 0.9621 -0.1986
vn 0.3598 0.8511 -0.3822
vn 0.2931 0.6933 -0.6584
vn -0.0702 0.9462 -0.3160
vn -0.1295 0.8022 -0.5828
vn -0.3433 0.7046 -0.6210
vn -0.2336 0.9723 0.0000
vn -0.4632 0.8863 0.0000
vn -0.5572 0.7697 0.3118
vn -0.0702 0.9462 0.3160
vn -0.1295 0.8022 0.5828
vn 0.0264 0.6620 0.7491
vn 0.1870 0.9621 0.1986
vn 0.3598 0.8511 0.3822
vn 0.5833 0.7792 0.2293
vn 0.7999 0.4342 -0.4141
vn 0.6671 0.2302 -0.7085
vn 0.4329 0.3639 -0.8247
vn -0.0169 0.3304 -0.9437
vn -0.2129 0.1924 -0.9579
vn -0.3971 0.3588 -0.8447
vn -0.8242 0.4398 -0.3568
vn -0.9632 0.2689 0.0000
vn -0.8242 0.4398 0.3568
vn -0.3971 0.3588 0.8447
vn -0.2129 0.1924 0.9579
vn -0.0169 0.3304 0.9437
vn 0.4329 0.3639 0.8247
vn 0.6671 0.2302 0.7085
vn 0.7999 0.4342 0.4141
vn 0.2152 0.1289 -0.9680
vn 0.2129 -0.1924 -0.9579
vn 0.0169 -0.3304 -0.9437
vn -0.6772 0.1550 -0.7193
vn -0.6671 -0.2302 -0.7085
vn -0.7999 -0.4342 -0.4141
vn -0.6772 0.1550 0.7193
vn -0.6671 -0.2302 0.7085
vn -0.4329 -0.3639 0.8247
vn 0.2152 0.1289 0.9680
vn 0.2129 -0.1924 0.9579
vn 0.3971 -0.3588 0.8447
vn 0.9833 0.1820 0.0000
vn 0.9632 -0.2689 0.0000
vn 0.8242 -0.4398 -0.3568
vn 0.3433 -0.7046 -0.6210
vn 0.1295 -0.8022 -0.5828
vn -0.0264 -0.6620 -0.7491
vn -0.2931 -0.6933 -0.6584
vn -0.3598 -0.8511 -0.3822
vn -0.5833 -0.7792 -0.2293
vn -0.5833 -0.7792 0.2293
vn -0.3598 -0.8511 0.3822
vn -0.2931 -0.6933 0.6584
vn 0.5572 -0.7697 -0.3118
vn 0.4632 -0.8863 0.0000
vn 0.2336 -0.9723 0.0000
vn -0.0264 -0.6620 0.7491
vn 0.1295 -0.8022 0.5828
vn 0.3433 -0.7046 0.6210
s off
f 1/1/1 14/2/1 13/3/1
f 2/4/2 14/5/2 16/6/2
f 1/7/3 13/8/3 18/9/3
f 1/10/4 18/11/4 20/12/4
f 1/13/5 20/14/5 17/15/5
f 2/4/6 16/6/6 23/16/6
f 3/17/7 15/18/7 25/19/7
f 4/20/8 19/21/8 27/22/8
f 5/23/9 21/24/9 29/25/9
f 6/26/10 22/27/10 31/28/10
f 2/4/11 23/16/11 26/29/11
f 3/17/12 25/19/12 28/30/12
f 4/20/13 27/22/13 30/31/13
f 5/23/14 29/25/14 32/32/14
f 6/26/15 31/28/15 24/33/15
f 7/34/16 33/35/16 38/36/16
f 8/37/17 34/38/17 40/39/17
f 9/40/18 35/41/18 41/42/18
f 10/43/19 36/44/19 42/45/19
f 11/46/20 37/47/20 39/48/20
f 39/48/21 42/49/21 12/50/21
f 39/48/22 37/47/22 42/49/22
f 37/47/23 10/43/23 42/49/23
f 42/45/24 41/51/24 12/52/24
f 42/45/25 36/44/25 41/51/25
f 36/44/26 9/40/26 41/51/26
f 41/42/27 40/53/27 12/54/27
f 41/42/28 35/41/28 40/53/28
f 35/41/29 8/55/29 40/53/29
f 40/39/30 38/56/30 12/57/30
f 40/39/31 34/38/31 38/56/31
f 34/38/32 7/34/32 38/56/32
f 38/36/33 39/58/33 12/59/33
f 38/36/34 33/35/34 39/58/34
f 33/35/35 11/46/35 39/58/35
f 24/33/36 37/47/36 11/46/36
f 24/33/37 31/28/37 37/47/37
f 31/28/38 10/43/38 37/47/38
f 32/32/39 36/44/39 10/43/39
f 32/32/40 29/25/40 36/44/40
f 29/25/41 9/40/41 36/44/41
f 30/31/42 35/41/42 9/40/42
f 30/31/43 27/22/43 35/41/43
f 27/22/44 8/55/44 35/41/44
f 28/30/45 34/38/45 8/37/45
f 28/30/46 25/19/46 34/38/46
f 25/19/47 7/34/47 34/38/47
f 26/29/48 33/35/48 7/34/48
f 26/29/49 23/16/49 33/35/49
f 23/16/50 11/46/50 33/35/50
f 31/28/51 32/32/51 10/43/51
f 31/28/52 22/27/52 32/32/52
f 22/27/53 5/23/53 32/32/53
f 29/25/54 30/31/54 9/40/54
f 29/25/55 21/24/55 30/31/55
f 21/24/56 4/20/56 30/31/56
f 27/22/57 28/60/57 8/55/57
f 27/22/58 19/21/58 28/60/58
f 19/21/59 3/61/59 28/60/59
f 25/19/60 26/29/60 7/34/60
f 25/19/61 15/18/61 26/29/61
f 15/18/62 2/4/62 26/29/62
f 23/16/63 24/33/63 11/46/63
f 23/16/64 16/6/64 24/33/64
f 16/6/65 6/26/65 24/33/65
f 17/15/66 22/27/66 6/26/66
f 17/15/67 20/14/67 22/27/67
f 20/14/68 5/23/68 22/27/68
f 20/12/69 21/24/69 5/23/69
f 20/12/70 18/11/70 21/24/70
f 18/11/71 4/20/71 21/24/71
f 18/9/72 19/21/72 4/20/72
f 18/9/73 13/8/73 19/21/73
f 13/8/74 3/61/74 19/21/74
f 16/6/75 17/62/75 6/26/75
f 16/6/76 14/5/76 17/62/76
f 14/5/77 1/63/77 17/62/77
f 13/3/78 15/18/78 3/17/78
f 13/3/79 14/2/79 15/18/79
f 14/2/80 2/4/80 15/18/80
